# xmcd
#
# Track frame offsets:
#	150
#	21082
#	44762
#	69261
#	96817
#	118818
#	143950
#	162566
#	180672
#	201980
#	231898
#	249068
#	274549
#	302649
#	323050
#
# Disc length: 4636 seconds
#
# Revision: 0
# Processed by: cddbd v1.5.2PL0 Copyright (c) Steve Scherf et al.
# Submitted via: EasyCDDAExtractor 12.0.4.1
#
DISCID=d1121a0f
DTITLE=Little Axe
DYEAR=1900
DGENRE=Blues
TTITLE0=On The Beat Sound (Slow Fuse Bonus CD Mix)
TTITLE1=Judgement (Slow Fuse Bonus CD Mix)
TTITLE2=Must Have Been The Devil (Slow Fuse Bonus CD Mix)
TTITLE3=Falling Down (Slow Fuse Bonus CD Mix)
TTITLE4=Going Down (Slow Fuse Bonus CD Mix)
TTITLE5=Too Late (Slow Fuse Bonus CD Mix)
TTITLE6=Storm is Rising (Hebaliser RMX)
TTITLE7=Ride On (Control Tower Remix)
TTITLE8=Here My Cry
TTITLE9=Back To The Crossraods
TTITLE10=No More War
TTITLE11=Another Sinful Day (Acoustic)
TTITLE12=Dayton
TTITLE13=Crossfire
TTITLE14=Hammerhead (Remix)
EXTD=
EXTT0=
EXTT1=
EXTT2=
EXTT3=
EXTT4=
EXTT5=
EXTT6=
EXTT7=
EXTT8=
EXTT9=
EXTT10=
EXTT11=
EXTT12=
EXTT13=
EXTT14=
PLAYORDER=
